<svg xmlns="http://www.w3.org/2000/svg" width="121.689" height="32" viewBox="0 0 121.689 32" class="Logo" role="img" aria-label="Logo tollwerk, Zur Startseite wechseln" aria-describedby="tollwerk-logo"> <desc id="tollwerk-logo">Zur Startseite wechseln</desc> <path id="tollwerk-button" d="M32 16c0 8.838-7.164 16-16 16-8.837 0-16-7.162-16-16 0-.469.024-.932.063-1.391l6.195-6.893-2.15-2.42a16.206 16.206 0 0 1 1.856-1.755L8.979 7.84l-4.371 6.111 2.316 1.814 7.287-8.049L8.8 1.71A15.936 15.936 0 0 1 16 0c8.836 0 16 7.164 16 16zm-5.143-3.554H12.908v3.726h3.564v2.407c0 5.378 1.067 8.292 6.69 8.292.837.004 1.673-.054 2.501-.172l-.236-3.347c-.318.049-.781.049-1.401.049-2.469 0-3.346-1.261-3.346-4.819v-2.41h6.175v-3.726z"></path> <path class="text" d="M121.428 26.402h-4.564l-3.064-4.984-1.661 1.884v3.101h-3.96V6.577h3.96v11.948l4.332-5.407h4.686l-4.93 5.568zm-33.08-2.508c-1.967 0-2.992-.989-3.231-3.103h6.537V18.02h-6.466c.297-1.483 1.068-2.124 2.568-2.124l3.896.001v-2.779h-3.794l-.391.016c-3.905.161-5.971 2.469-5.971 6.715 0 4.455 2.275 6.91 6.405 6.91 1.751 0 3.407-.356 5.066-1.086l-.885-2.568c-1.374.521-2.632.789-3.734.789zm14.211-7.223c.196-.017.394-.016.588.005.42.042.827.169 1.194.376l1.201-3.486a5.295 5.295 0 0 0-1.196-.552l-.045-.015c-1.427-.426-2.738-.042-3.744.76-.528.377-1.063.884-1.639 1.541l-.187.215v-2.396H94.8v13.285h3.961v-6.998l.017-.027c.408-.622.812-1.126 1.228-1.523.927-.768 1.787-1.119 2.553-1.185zm-27.023 4.57l-3.128-8.123h-2.721l-2.969 8.147-1.81-8.148h-4.092l3.815 13.284h2.954l3.359-8.227 3.327 8.227h2.927l3.671-13.284h-3.796l-1.535 8.124zm25.172.603l2.877 4.562h4.567l-4.292-5.993zm-54.132-2.35c0 4.548-2.593 7.265-6.938 7.265-4.159 0-6.643-2.605-6.643-6.967 0-4.383 2.604-6.998 6.968-6.998 4.141-.002 6.613 2.504 6.613 6.7zm-4.05.208c0-2.604-.932-3.925-2.77-3.925-1.779 0-2.682 1.3-2.682 3.867 0 2.721.943 4.102 2.801 4.102 1.759-.001 2.651-1.362 2.651-4.044zm12.742 1.194h3.961V6.577h-3.961zm-6.773 5.507h3.959V6.577h-3.959z"></path> <path class="underline" d="M121.688 28.488H28.947a17.95 17.95 0 0 1-2.25 2h94.991z"></path> </svg>
